<?xml version="1.0" encoding="utf-8"?>
<!-- Generator: Adobe Illustrator 23.0.5, SVG Export Plug-In . SVG Version: 6.00 Build 0)  -->
<svg version="1.1" id="Capa_1" xmlns="http://www.w3.org/2000/svg" xmlns:xlink="http://www.w3.org/1999/xlink" x="0px" y="0px"
	 viewBox="0 0 1920 653.1" style="enable-background:new 0 0 1920 653.1;" xml:space="preserve">
<style type="text/css">
	.st0{fill:url(#SVGID_1_);}
	.st1{fill:none;}
	.st2{fill:#FFFFFF;}
</style>
<g>
	<path d="M1780,653.1H140c-77.3,0-140-62.7-140-140V140C0,62.7,62.7,0,140,0H1780c77.3,0,140,62.7,140,140v373.2
		C1920,590.4,1857.3,653.1,1780,653.1z"/>
	
		<linearGradient id="SVGID_1_" gradientUnits="userSpaceOnUse" x1="126.8346" y1="339.6396" x2="439.3103" y2="339.6396" gradientTransform="matrix(1 0 0 -1 0 653.09)">
		<stop  offset="0" style="stop-color:#FFFFFF"/>
		<stop  offset="0" style="stop-color:#FFFFFF"/>
		<stop  offset="1.150000e-02" style="stop-color:#E8F4F9"/>
		<stop  offset="3.300000e-02" style="stop-color:#C4E3EF"/>
		<stop  offset="5.720000e-02" style="stop-color:#A4D4E6"/>
		<stop  offset="8.400000e-02" style="stop-color:#88C7DF"/>
		<stop  offset="0.1143" style="stop-color:#72BDD9"/>
		<stop  offset="0.1496" style="stop-color:#61B5D5"/>
		<stop  offset="0.1933" style="stop-color:#56AFD1"/>
		<stop  offset="0.2546" style="stop-color:#4FACD0"/>
		<stop  offset="0.4247" style="stop-color:#4DABCF"/>
		<stop  offset="0.8822" style="stop-color:#4D77CF"/>
	</linearGradient>
	<path class="st0" d="M373,491H214.6c-39.9,0-72.2-32.3-72.2-72.2V208.1c0-39.9,32.3-72.2,72.2-72.2H373c39.9,0,72.2,32.3,72.2,72.2
		v210.7C445.2,458.7,412.9,491,373,491z"/>
	<g>
		<rect x="443.8" y="166.2" class="st1" width="1296.2" height="292.1"/>
		<path class="st2" d="M560.7,459.6c-17.7,0-33.4-3.4-46.9-10.2c-13.6-6.8-24.1-17.2-31.7-31.3s-11.3-31.8-11.3-53.2V246h61v109.5
			c0,17.7,3.7,30.7,11.1,38.9c7.4,8.2,17.9,12.3,31.5,12.3c9.4,0,17.7-2.1,25-6.3c7.3-4.2,13.1-10.4,17.4-18.8
			c4.3-8.3,6.4-18.8,6.4-31.3V246h60.6v210.5H626v-58.3l10.6,17.2c-7.3,14.6-17.7,25.6-31.3,33.1
			C591.8,455.9,576.9,459.6,560.7,459.6z"/>
		<path class="st2" d="M1010.2,242.8c16.7,0,31.5,3.3,44.4,10c12.9,6.6,23,16.8,30.3,30.5c7.3,13.7,11,31.2,11,52.6v120.5h-61V345.3
			c0-17-3.5-29.5-10.4-37.5c-6.9-8.1-16.6-12.1-29.2-12.1c-9.1,0-17.2,2-24.3,6.1c-7,4-12.5,10.1-16.2,18c-3.8,8-5.7,18.3-5.7,31.1
			v105.6h-61V345.3c0-17-3.5-29.5-10.4-37.5c-6.9-8.1-16.9-12.1-29.9-12.1c-8.9,0-16.8,2-23.9,6.1c-7,4-12.5,10.1-16.4,18
			c-3.9,8-5.9,18.3-5.9,31.1v105.6h-61V246H799v57.1l-11-16.4c7-14.3,17.3-25.2,30.9-32.7c13.6-7.4,28.8-11.1,45.8-11.1
			c19.3,0,36.2,4.9,50.9,14.7c14.6,9.8,24.3,24.7,29,44.8l-21.5-5.9c7-16.2,18.3-29.2,33.6-38.9C972,247.7,989.9,242.8,1010.2,242.8
			z"/>
		<path class="st2" d="M1151.1,532.3V246h58.3v43l-1.2,62.6l3.9,62.2v118.5H1151.1z M1275.1,459.6c-17.5,0-32.9-3.9-46.2-11.7
			c-13.3-7.8-23.7-19.8-31.1-35.8s-11.1-36.3-11.1-60.8c0-24.8,3.5-45.1,10.6-61c7-15.9,17.3-27.8,30.7-35.6
			c13.4-7.8,29.2-11.7,47.1-11.7c20.1,0,38,4.5,53.8,13.5c15.8,9,28.3,21.6,37.5,37.7c9.2,16.2,13.9,35.2,13.9,57.1
			c0,22.2-4.6,41.3-13.9,57.3c-9.3,16-21.8,28.6-37.5,37.5C1313.1,455.1,1295.1,459.6,1275.1,459.6z M1264.9,409.5
			c10.2,0,19.2-2.3,27.2-7s14.3-11.4,19.2-20.1c4.8-8.7,7.2-19.1,7.2-31.1c0-12.3-2.4-22.7-7.2-31.3c-4.8-8.6-11.2-15.2-19.2-19.8
			s-17-6.8-27.2-6.8s-19.3,2.3-27.4,6.8c-8.1,4.6-14.5,11.1-19.4,19.8c-4.8,8.6-7.2,19-7.2,31.3c0,12,2.4,22.4,7.2,31.1
			c4.8,8.7,11.3,15.5,19.4,20.1C1245.6,407.1,1254.7,409.5,1264.9,409.5z"/>
		<path class="st2" d="M1441.7,535.5c-10.7,0-21.4-1.7-32.1-5.1c-10.7-3.4-19.6-8.1-26.6-14.1l22.3-43.8c4.7,4.4,10.1,7.8,16.2,10.2
			c6.1,2.3,12.3,3.5,18.6,3.5c8.3,0,15.1-2,20.1-6.1c5.1-4,9.7-10.8,13.9-20.1l11-25.8l4.7-6.6l75.9-181.5h58.3l-95.1,223.4
			c-6.8,17.2-14.5,30.6-23.3,40.1c-8.7,9.5-18.4,16.2-29,20.1C1466.2,533.5,1454.5,535.5,1441.7,535.5z M1477.7,464.6L1384.2,246
			h62.6l73.1,176.4L1477.7,464.6z"/>
		<path class="st2" d="M1659.6,459.6c-10.4,0-19.4-3.6-26.8-10.8c-7.4-7.2-11.1-16.2-11.1-27.2c0-11.5,3.7-20.7,11.1-27.8
			c7.4-7,16.4-10.6,26.8-10.6c10.7,0,19.7,3.5,27,10.6c7.3,7,11,16.3,11,27.8c0,11-3.7,20-11,27.2
			C1679.3,456,1670.3,459.6,1659.6,459.6z"/>
	</g>
	<g>
		<rect x="142.1" y="47.5" class="st1" width="329.6" height="410.8"/>
		<path class="st2" d="M178.8,187.8c13.3-3.8,30.4-7.4,51.3-10.7c21-3.3,43-5,66-5c23.4,0,42.9,3.1,58.4,9.2
			c15.5,6.1,27.8,14.8,36.9,25.9c9.1,11.2,15.5,24.5,19.4,39.8c3.8,15.4,5.8,32.5,5.8,51.3v155.6h-78V307.8c0-25.1-3.3-43-10-53.4
			c-6.6-10.5-19-15.7-37.2-15.7c-5.6,0-11.5,0.3-17.8,0.8c-6.3,0.5-11.9,1.1-16.8,1.8v212.7h-78L178.8,187.8L178.8,187.8z"/>
	</g>
</g>
</svg>
