<?xml version="1.0" encoding="utf-8"?>
<!-- Generator: Adobe Illustrator 23.0.5, SVG Export Plug-In . SVG Version: 6.00 Build 0)  -->
<svg version="1.1" xmlns="http://www.w3.org/2000/svg" xmlns:xlink="http://www.w3.org/1999/xlink" x="0px" y="0px"
	 viewBox="0 0 1920 1080" style="enable-background:new 0 0 1920 1080;" xml:space="preserve">
<style type="text/css">
	.st0{fill:url(#SVGID_1_);stroke:url(#SVGID_2_);stroke-miterlimit:10;}
	.st1{fill:none;}
	.st2{fill:#FFFFFF;}
	.st3{fill:url(#SVGID_3_);}
</style>
<g id="Capa_1">
</g>
<g id="Capa_2">
	<path d="M1460.99,739.5H459.01c-47.23,0-85.51-38.28-85.51-85.51V426.01c0-47.23,38.28-85.51,85.51-85.51h1001.98
		c47.23,0,85.51,38.28,85.51,85.51v227.98C1546.5,701.22,1508.22,739.5,1460.99,739.5z"/>
	<linearGradient id="SVGID_1_" gradientUnits="userSpaceOnUse" x1="450.988" y1="532" x2="641.8911" y2="532">
		<stop  offset="0" style="stop-color:#FFFFFF"/>
		<stop  offset="0" style="stop-color:#FFFFFF"/>
		<stop  offset="0.0115" style="stop-color:#E8F4F9"/>
		<stop  offset="0.033" style="stop-color:#C4E3EF"/>
		<stop  offset="0.0572" style="stop-color:#A4D4E6"/>
		<stop  offset="0.084" style="stop-color:#88C7DF"/>
		<stop  offset="0.1143" style="stop-color:#72BDD9"/>
		<stop  offset="0.1496" style="stop-color:#61B5D5"/>
		<stop  offset="0.1933" style="stop-color:#56AFD1"/>
		<stop  offset="0.2546" style="stop-color:#4FACD0"/>
		<stop  offset="0.4247" style="stop-color:#4DABCF"/>
		<stop  offset="0.8822" style="stop-color:#4D77CF"/>
	</linearGradient>
	<path style="fill:url(#SVGID_1_);" d="M601.37,640.5h-96.74c-24.37,0-44.13-19.76-44.13-44.13V467.63
		c0-24.37,19.76-44.13,44.13-44.13h96.74c24.37,0,44.13,19.76,44.13,44.13v128.74C645.5,620.74,625.74,640.5,601.37,640.5z"/>
	<g>
		<rect x="644.61" y="442.02" class="st1" width="791.89" height="178.48"/>
		<path class="st2" d="M716.07,621.27c-10.84,0-20.4-2.07-28.68-6.21c-8.29-4.14-14.74-10.52-19.36-19.12
			c-4.62-8.6-6.93-19.44-6.93-32.5v-72.66h37.28v66.92c0,10.84,2.27,18.76,6.81,23.78c4.54,5.02,10.95,7.53,19.24,7.53
			c5.74,0,10.83-1.27,15.3-3.82c4.46-2.55,8.01-6.37,10.63-11.47c2.63-5.1,3.94-11.47,3.94-19.12v-63.81h37.04v128.58h-35.37v-35.61
			l6.45,10.52c-4.46,8.93-10.84,15.66-19.12,20.2C735.03,619,725.95,621.27,716.07,621.27z"/>
		<path class="st2" d="M990.68,488.86c10.2,0,19.24,2.03,27.13,6.09s14.06,10.28,18.52,18.64c4.46,8.36,6.69,19.08,6.69,32.15v73.61
			h-37.29v-67.88c0-10.36-2.11-18-6.33-22.94c-4.22-4.94-10.16-7.41-17.81-7.41c-5.58,0-10.52,1.24-14.82,3.7
			c-4.3,2.47-7.61,6.14-9.92,10.99c-2.31,4.86-3.46,11.2-3.46,19v64.53h-37.29v-67.88c0-10.36-2.11-18-6.33-22.94
			c-4.22-4.94-10.32-7.41-18.28-7.41c-5.42,0-10.28,1.24-14.58,3.7c-4.3,2.47-7.65,6.14-10.04,10.99c-2.39,4.86-3.58,11.2-3.58,19
			v64.53h-37.28V490.77h35.61v34.89l-6.69-10.04c4.3-8.76,10.59-15.42,18.88-19.96c8.28-4.54,17.6-6.81,27.96-6.81
			c11.79,0,22.14,2.99,31.07,8.96c8.92,5.97,14.82,15.1,17.69,27.37l-13.14-3.58c4.3-9.88,11.15-17.81,20.55-23.78
			C967.34,491.85,978.25,488.86,990.68,488.86z"/>
		<path class="st2" d="M1076.72,665.72V490.77h35.61v26.29l-0.72,38.24l2.39,38v72.42H1076.72z M1152.48,621.27
			c-10.68,0-20.08-2.39-28.2-7.17c-8.12-4.78-14.46-12.07-19-21.87s-6.81-22.19-6.81-37.16c0-15.14,2.15-27.56,6.45-37.28
			c4.3-9.72,10.55-16.97,18.76-21.75c8.21-4.78,17.81-7.17,28.8-7.17c12.27,0,23.22,2.75,32.86,8.25
			c9.64,5.5,17.29,13.19,22.94,23.06c5.65,9.88,8.49,21.51,8.49,34.89c0,13.54-2.83,25.21-8.49,35.01
			c-5.66,9.8-13.31,17.45-22.94,22.94C1175.7,618.52,1164.75,621.27,1152.48,621.27z M1146.27,590.67c6.21,0,11.75-1.43,16.61-4.3
			c4.86-2.87,8.76-6.97,11.71-12.31c2.95-5.34,4.42-11.67,4.42-19c0-7.49-1.48-13.86-4.42-19.12c-2.95-5.26-6.85-9.28-11.71-12.07
			c-4.86-2.79-10.4-4.18-16.61-4.18c-6.21,0-11.79,1.4-16.73,4.18c-4.94,2.79-8.88,6.81-11.83,12.07
			c-2.95,5.26-4.42,11.63-4.42,19.12c0,7.33,1.47,13.66,4.42,19c2.95,5.34,6.89,9.44,11.83,12.31
			C1134.47,589.24,1140.05,590.67,1146.27,590.67z"/>
		<path class="st2" d="M1254.29,667.63c-6.54,0-13.07-1.04-19.6-3.11c-6.54-2.07-11.95-4.94-16.25-8.6l13.62-26.77
			c2.87,2.71,6.17,4.78,9.92,6.21c3.74,1.43,7.53,2.15,11.35,2.15c5.1,0,9.2-1.24,12.31-3.71c3.11-2.47,5.93-6.57,8.48-12.31
			l6.69-15.77l2.87-4.06l46.37-110.9h35.61l-58.08,136.47c-4.15,10.52-8.88,18.68-14.22,24.5c-5.34,5.81-11.23,9.92-17.69,12.31
			C1269.23,666.44,1262.1,667.63,1254.29,667.63z M1276.28,624.37l-57.12-133.6h38.24l44.69,107.79L1276.28,624.37z"/>
		<path class="st2" d="M1387.41,621.27c-6.38,0-11.83-2.19-16.37-6.57c-4.54-4.38-6.81-9.92-6.81-16.61
			c0-7.01,2.27-12.67,6.81-16.97s10-6.45,16.37-6.45c6.53,0,12.03,2.15,16.49,6.45c4.46,4.3,6.69,9.96,6.69,16.97
			c0,6.69-2.23,12.23-6.69,16.61C1399.44,619.08,1393.95,621.27,1387.41,621.27z"/>
	</g>
	<g>
		<rect x="460.32" y="369.5" class="st1" width="201.35" height="251"/>
		<path class="st2" d="M482.72,455.26c8.1-2.34,18.56-4.53,31.36-6.56c12.8-2.02,26.24-3.04,40.32-3.04
			c14.29,0,26.19,1.87,35.68,5.6c9.49,3.73,17.01,9.02,22.56,15.84c5.54,6.83,9.49,14.94,11.84,24.32
			c2.34,9.39,3.52,19.84,3.52,31.36v95.04h-47.68v-89.28c0-15.36-2.03-26.24-6.08-32.64c-4.05-6.4-11.63-9.6-22.72-9.6
			c-3.42,0-7.04,0.16-10.88,0.48s-7.26,0.69-10.24,1.12v129.92h-47.68V455.26z"/>
	</g>
</g>
</svg>
